<svg width="100" height="100" viewBox="0 0 100 100" fill="none" xmlns="http://www.w3.org/2000/svg">
<g clip-path="url(#clip0_11_1091)">
<rect width="100" height="100" fill="white"/>
<path d="M100 0H0V100H100V0Z" fill="white"/>
<g opacity="0.1">
<path opacity="0.1" d="M99.9921 97.6323V99.9921H97.6323" stroke="#20263C" stroke-miterlimit="10"/>
<path opacity="0.1" d="M93.1015 99.9921H4.62518" stroke="#20263C" stroke-miterlimit="10" stroke-dasharray="5.77 5.77"/>
<path opacity="0.1" d="M2.35979 99.9921H0V97.6323" stroke="#20263C" stroke-miterlimit="10"/>
<path opacity="0.1" d="M0 93.0937V4.62518" stroke="#20263C" stroke-miterlimit="10" stroke-dasharray="5.77 5.77"/>
<path opacity="0.1" d="M0 2.35979V0H2.35979" stroke="#20263C" stroke-miterlimit="10"/>
<path opacity="0.1" d="M6.89847 0H95.3669" stroke="#20263C" stroke-miterlimit="10" stroke-dasharray="5.77 5.77"/>
<path opacity="0.1" d="M97.6323 0H99.9921V2.35979" stroke="#20263C" stroke-miterlimit="10"/>
<path opacity="0.1" d="M99.9921 6.89056V95.3669" stroke="#20263C" stroke-miterlimit="10" stroke-dasharray="5.77 5.77"/>
</g>
<path d="M37.7566 44.2558L27.9307 38.5432L18.0917 44.2558V55.6549L27.9307 61.3545L37.7566 55.6549V44.2558ZM35.6408 54.4289L27.9307 58.8895L20.2205 54.4289V45.4818L27.9307 41.0082L35.6408 45.4818V54.4289Z" fill="#F5AD2B"/>
<path d="M71.1805 38.5432L61.3545 44.2558V55.6549L71.1805 61.3545L81.0194 55.6549V44.2558L71.1805 38.5432ZM78.8909 54.4289L71.1805 58.8895L63.4703 54.4289V45.4818L71.1805 41.0082L78.8909 45.4818V54.4289Z" fill="#232414"/>
<path d="M29.1041 63.1341V74.5333L38.9559 80.2328L48.769 74.5333V63.1341L38.9559 57.4215L29.1041 63.1341Z" fill="#F5AD2B"/>
<path d="M50.3422 63.1341V74.5333L60.1681 80.2328L70.0071 74.5333V63.1341L60.1681 57.4215L50.3422 63.1341Z" fill="#F5AD2B"/>
<path d="M48.769 36.7766V25.3384L38.969 19.6649L29.1041 25.3384V36.7375L38.969 42.4762L48.769 36.7766Z" fill="#232414"/>
<path d="M70.0071 36.8158V25.3775L60.1681 19.6649L50.3422 25.3775V36.7766L60.1681 42.4762L70.0071 36.8158Z" fill="#232414"/>
<path fill-rule="evenodd" clip-rule="evenodd" d="M51.5174 49.2979L50.1269 47.4245H46.624L43.3575 51.8222L44.8355 51.9153L47.3975 48.4655H49.3514L49.9704 49.2979H51.5174ZM42.4762 53.9749L43.8719 55.8483L47.3976 55.8483L50.6505 51.4687H49.103L46.6241 54.8073H44.6459L44.0243 53.9749H42.4762ZM56.6349 44.3496L55.2444 42.4762H51.7414L48.475 46.8739H50.0222L52.515 43.5173H54.4689L55.0879 44.3496H56.6349ZM47.5937 49.0266L48.9894 50.9001H52.5151L55.768 46.5205H54.2205L51.7416 49.859H49.7634L49.1418 49.0266H47.5937Z" fill="#232414"/>
</g>
<defs>
<clipPath id="clip0_11_1091">
<rect width="100" height="100" fill="white"/>
</clipPath>
</defs>
</svg>
